<svg width="1201.3" height="97.2" viewBox="0 0 1201.3 97.2" xmlns="http://www.w3.org/2000/svg"><g id="svgGroup" stroke-linecap="round" fill-rule="evenodd" font-size="9pt" stroke="#000" stroke-width="0.25mm" fill="#000" style="stroke:#000;stroke-width:0.25mm;fill:#000"><path d="M 9 74 L 0 74 L 0 4 L 13.3 4 L 32.7 48.3 L 51.8 4 L 65.4 4 L 65.4 74 L 55.9 74 L 55.9 16.1 L 37.2 58.2 L 27.8 58.2 L 9 16.1 L 9 74 Z M 556.6 74 L 546.7 74 L 530.3 24.4 L 538.6 21.5 L 552 63.8 L 564.2 25.7 L 573.9 25.7 L 585.8 63.8 L 599.1 21.5 L 607.1 24.4 L 590.6 74 L 580.7 74 L 568.7 35.3 L 556.6 74 Z M 408.8 68.4 L 402.2 75.2 L 368.2 41.8 L 368.2 74 L 358.7 74 L 358.7 4 L 368.2 4 L 368.2 35.9 L 398 3.7 L 404.4 9.6 L 377.1 38 L 408.8 68.4 Z M 226.1 69 L 219.9 75 L 193 47.3 L 193 74 L 184 74 L 184 0 L 193 0 L 193 42.3 L 216.5 21 L 221.7 26.7 L 201.6 44.5 L 226.1 69 Z M 767.8 92.8 L 771.1 85 A 20.562 20.562 0 0 0 774.917 87.373 A 24.737 24.737 0 0 0 776.7 88.15 Q 779.459 89.228 783.259 89.376 A 31.788 31.788 0 0 0 784.5 89.4 A 21.701 21.701 0 0 0 789.021 88.957 Q 791.922 88.339 794.122 86.859 A 12.576 12.576 0 0 0 795.65 85.65 A 11.352 11.352 0 0 0 798.557 81.157 Q 799.7 78.056 799.7 73.7 L 799.7 67.3 Q 797.7 69.7 793.95 71.85 Q 790.2 74 785 74 Q 779.1 74 773.8 70.95 A 22.236 22.236 0 0 1 766.508 64.112 A 27.437 27.437 0 0 1 765.2 62 A 25.181 25.181 0 0 1 762.487 54.376 A 35.033 35.033 0 0 1 761.9 47.8 A 32.06 32.06 0 0 1 762.817 39.992 A 26.682 26.682 0 0 1 765.15 33.9 A 25.706 25.706 0 0 1 771.214 26.278 A 24.448 24.448 0 0 1 773.9 24.3 Q 779.4 20.8 786 20.8 A 22.366 22.366 0 0 1 790.82 21.301 A 18.715 18.715 0 0 1 794 22.3 A 25.705 25.705 0 0 1 797.828 24.268 A 20.998 20.998 0 0 1 800.2 26 L 800.2 22 L 808.4 22 L 808.4 72.8 Q 808.4 81.4 805.4 86.8 Q 802.4 92.2 797.05 94.7 A 25.811 25.811 0 0 1 790.446 96.721 A 35.243 35.243 0 0 1 784.5 97.2 Q 779.9 97.2 775.55 96.1 A 27.232 27.232 0 0 1 770.25 94.183 A 23.518 23.518 0 0 1 767.8 92.8 Z M 426.8 74 L 417.8 74 L 417.8 22 L 426.5 22 L 426.5 30.7 Q 429.3 26.5 433.65 23.65 A 17.316 17.316 0 0 1 440.756 21.025 A 22.629 22.629 0 0 1 444 20.8 A 23.225 23.225 0 0 1 449.065 21.318 Q 454.159 22.456 457.15 26.1 Q 461.275 31.126 461.488 39.209 A 33.764 33.764 0 0 1 461.5 40.1 L 461.5 74 L 452.5 74 L 452.5 41.1 A 19.265 19.265 0 0 0 452.158 37.359 Q 451.719 35.145 450.719 33.397 A 10.966 10.966 0 0 0 449.85 32.1 A 8.579 8.579 0 0 0 443.573 28.747 A 12.061 12.061 0 0 0 442.5 28.7 A 13.122 13.122 0 0 0 435.651 30.664 A 17.353 17.353 0 0 0 433.8 31.95 Q 429.7 35.2 426.8 39.6 L 426.8 74 Z M 1028.1 74 L 1019.1 74 L 1019.1 22 L 1027.8 22 L 1027.8 30.7 Q 1030.6 26.5 1034.95 23.65 A 17.316 17.316 0 0 1 1042.056 21.025 A 22.629 22.629 0 0 1 1045.3 20.8 A 23.225 23.225 0 0 1 1050.365 21.318 Q 1055.459 22.456 1058.45 26.1 Q 1062.575 31.126 1062.788 39.209 A 33.764 33.764 0 0 1 1062.8 40.1 L 1062.8 74 L 1053.8 74 L 1053.8 41.1 A 19.265 19.265 0 0 0 1053.458 37.359 Q 1053.019 35.145 1052.019 33.397 A 10.966 10.966 0 0 0 1051.15 32.1 A 8.579 8.579 0 0 0 1044.873 28.747 A 12.061 12.061 0 0 0 1043.8 28.7 A 13.122 13.122 0 0 0 1036.951 30.664 A 17.353 17.353 0 0 0 1035.1 31.95 Q 1031 35.2 1028.1 39.6 L 1028.1 74 Z M 954.2 6.4 L 951.3 14.4 Q 948.2 12.9 944.95 12 Q 942.157 11.227 938.515 11.118 A 40.705 40.705 0 0 0 937.3 11.1 A 21.173 21.173 0 0 0 929.395 12.555 A 19.981 19.981 0 0 0 925.85 14.4 A 21.167 21.167 0 0 0 919.484 20.981 A 26.978 26.978 0 0 0 917.9 23.9 Q 915 30.1 915 38.9 Q 915 47.3 917.85 53.6 A 25.677 25.677 0 0 0 921.436 59.428 A 21.423 21.423 0 0 0 925.75 63.4 A 19.703 19.703 0 0 0 936.895 66.897 A 23.894 23.894 0 0 0 937.3 66.9 A 33.715 33.715 0 0 0 941.271 66.678 Q 943.747 66.384 945.8 65.7 Q 949.4 64.5 952.8 62.6 L 955.7 70.5 A 37.561 37.561 0 0 1 951.205 72.544 A 47.894 47.894 0 0 1 947.25 73.85 A 33.592 33.592 0 0 1 942.285 74.841 Q 939.803 75.155 937.006 75.194 A 57.414 57.414 0 0 1 936.2 75.2 A 32.384 32.384 0 0 1 926.875 73.899 A 27.961 27.961 0 0 1 920.1 70.85 A 28.6 28.6 0 0 1 910.223 60.405 A 34.916 34.916 0 0 1 909.2 58.45 A 37.611 37.611 0 0 1 906.101 48.733 Q 905.325 44.467 905.301 39.614 A 62.816 62.816 0 0 1 905.3 39.3 Q 905.3 28.6 909.25 20.35 Q 913.2 12.1 920.45 7.45 A 29.371 29.371 0 0 1 933.13 3.039 A 37.292 37.292 0 0 1 937.4 2.8 A 45.639 45.639 0 0 1 942.458 3.068 A 35.2 35.2 0 0 1 946.5 3.75 A 38.224 38.224 0 0 1 953.975 6.294 A 35.605 35.605 0 0 1 954.2 6.4 Z M 739.5 27.2 L 739.5 0 L 748.5 0 L 748.5 61.4 A 12.15 12.15 0 0 0 748.602 63.036 Q 748.934 65.47 750.35 66.35 Q 752.2 67.5 754.4 67.5 L 752.5 74.5 Q 743 74.5 740.9 66.9 Q 738.7 70 734.75 72.6 Q 730.8 75.2 724.8 75.2 Q 718.4 75.2 713.1 71.9 A 22.692 22.692 0 0 1 705.562 64.109 A 27.622 27.622 0 0 1 704.7 62.55 A 27.533 27.533 0 0 1 702.112 54.608 A 37.221 37.221 0 0 1 701.6 48.3 A 33.94 33.94 0 0 1 702.489 40.386 A 27.963 27.963 0 0 1 704.75 34.2 A 27.291 27.291 0 0 1 709.369 27.609 A 24.186 24.186 0 0 1 713.15 24.4 Q 718.4 20.8 724.7 20.8 A 21.642 21.642 0 0 1 728.972 21.202 A 15.942 15.942 0 0 1 733.65 22.9 A 34.343 34.343 0 0 1 736.23 24.489 Q 737.454 25.324 738.425 26.174 A 16.59 16.59 0 0 1 739.5 27.2 Z M 275.7 51.7 L 239.3 51.7 A 24.088 24.088 0 0 0 240.439 56.725 Q 241.775 60.538 244.4 63.1 Q 248.6 67.2 255.5 67.2 Q 260 67.2 263.6 66.25 Q 267.2 65.3 270.5 63.8 L 272.6 71.5 A 40.77 40.77 0 0 1 268.265 73.126 A 51.863 51.863 0 0 1 264.5 74.15 A 38.914 38.914 0 0 1 259.408 74.969 A 52.025 52.025 0 0 1 254.4 75.2 A 28.318 28.318 0 0 1 246.654 74.195 A 21.108 21.108 0 0 1 236.65 68.05 A 23.521 23.521 0 0 1 231.445 58.51 Q 230.1 53.845 230.1 48 A 35.359 35.359 0 0 1 230.933 40.178 A 28.84 28.84 0 0 1 233.05 34.05 A 24.642 24.642 0 0 1 238.066 26.968 A 22.887 22.887 0 0 1 241.3 24.35 A 21.048 21.048 0 0 1 251.559 20.878 A 26.205 26.205 0 0 1 253.6 20.8 Q 261.1 20.8 266.05 24.05 Q 271 27.3 273.5 32.8 A 28.185 28.185 0 0 1 275.926 42.664 A 33.434 33.434 0 0 1 276 44.9 A 75.204 75.204 0 0 1 275.709 51.597 A 69.426 69.426 0 0 1 275.7 51.7 Z M 692.8 51.7 L 656.4 51.7 A 24.088 24.088 0 0 0 657.539 56.725 Q 658.875 60.538 661.5 63.1 Q 665.7 67.2 672.6 67.2 Q 677.1 67.2 680.7 66.25 Q 684.3 65.3 687.6 63.8 L 689.7 71.5 A 40.77 40.77 0 0 1 685.365 73.126 A 51.863 51.863 0 0 1 681.6 74.15 A 38.914 38.914 0 0 1 676.508 74.969 A 52.025 52.025 0 0 1 671.5 75.2 A 28.318 28.318 0 0 1 663.754 74.195 A 21.108 21.108 0 0 1 653.75 68.05 A 23.521 23.521 0 0 1 648.545 58.51 Q 647.2 53.845 647.2 48 A 35.359 35.359 0 0 1 648.033 40.178 A 28.84 28.84 0 0 1 650.15 34.05 A 24.642 24.642 0 0 1 655.166 26.968 A 22.887 22.887 0 0 1 658.4 24.35 A 21.048 21.048 0 0 1 668.659 20.878 A 26.205 26.205 0 0 1 670.7 20.8 Q 678.2 20.8 683.15 24.05 Q 688.1 27.3 690.6 32.8 A 28.185 28.185 0 0 1 693.026 42.664 A 33.434 33.434 0 0 1 693.1 44.9 A 75.204 75.204 0 0 1 692.809 51.597 A 69.426 69.426 0 0 1 692.8 51.7 Z M 866 51.7 L 829.6 51.7 A 24.088 24.088 0 0 0 830.739 56.725 Q 832.075 60.538 834.7 63.1 Q 838.9 67.2 845.8 67.2 Q 850.3 67.2 853.9 66.25 Q 857.5 65.3 860.8 63.8 L 862.9 71.5 A 40.77 40.77 0 0 1 858.565 73.126 A 51.863 51.863 0 0 1 854.8 74.15 A 38.914 38.914 0 0 1 849.708 74.969 A 52.025 52.025 0 0 1 844.7 75.2 A 28.318 28.318 0 0 1 836.954 74.195 A 21.108 21.108 0 0 1 826.95 68.05 A 23.521 23.521 0 0 1 821.745 58.51 Q 820.4 53.845 820.4 48 A 35.359 35.359 0 0 1 821.233 40.178 A 28.84 28.84 0 0 1 823.35 34.05 A 24.642 24.642 0 0 1 828.366 26.968 A 22.887 22.887 0 0 1 831.6 24.35 A 21.048 21.048 0 0 1 841.859 20.878 A 26.205 26.205 0 0 1 843.9 20.8 Q 851.4 20.8 856.35 24.05 Q 861.3 27.3 863.8 32.8 A 28.185 28.185 0 0 1 866.226 42.664 A 33.434 33.434 0 0 1 866.3 44.9 A 75.204 75.204 0 0 1 866.009 51.597 A 69.426 69.426 0 0 1 866 51.7 Z M 1006.8 51.7 L 970.4 51.7 A 24.088 24.088 0 0 0 971.539 56.725 Q 972.875 60.538 975.5 63.1 Q 979.7 67.2 986.6 67.2 Q 991.1 67.2 994.7 66.25 Q 998.3 65.3 1001.6 63.8 L 1003.7 71.5 A 40.77 40.77 0 0 1 999.365 73.126 A 51.863 51.863 0 0 1 995.6 74.15 A 38.914 38.914 0 0 1 990.508 74.969 A 52.025 52.025 0 0 1 985.5 75.2 A 28.318 28.318 0 0 1 977.754 74.195 A 21.108 21.108 0 0 1 967.75 68.05 A 23.521 23.521 0 0 1 962.545 58.51 Q 961.2 53.845 961.2 48 A 35.359 35.359 0 0 1 962.033 40.178 A 28.84 28.84 0 0 1 964.15 34.05 A 24.642 24.642 0 0 1 969.166 26.968 A 22.887 22.887 0 0 1 972.4 24.35 A 21.048 21.048 0 0 1 982.659 20.878 A 26.205 26.205 0 0 1 984.7 20.8 Q 992.2 20.8 997.15 24.05 Q 1002.1 27.3 1004.6 32.8 A 28.185 28.185 0 0 1 1007.026 42.664 A 33.434 33.434 0 0 1 1007.1 44.9 A 75.204 75.204 0 0 1 1006.809 51.597 A 69.426 69.426 0 0 1 1006.8 51.7 Z M 1158.1 51.7 L 1121.7 51.7 A 24.088 24.088 0 0 0 1122.839 56.725 Q 1124.175 60.538 1126.8 63.1 Q 1131 67.2 1137.9 67.2 Q 1142.4 67.2 1146 66.25 Q 1149.6 65.3 1152.9 63.8 L 1155 71.5 A 40.77 40.77 0 0 1 1150.665 73.126 A 51.863 51.863 0 0 1 1146.9 74.15 A 38.914 38.914 0 0 1 1141.808 74.969 A 52.025 52.025 0 0 1 1136.8 75.2 A 28.318 28.318 0 0 1 1129.054 74.195 A 21.108 21.108 0 0 1 1119.05 68.05 A 23.521 23.521 0 0 1 1113.845 58.51 Q 1112.5 53.845 1112.5 48 A 35.359 35.359 0 0 1 1113.333 40.178 A 28.84 28.84 0 0 1 1115.45 34.05 A 24.642 24.642 0 0 1 1120.466 26.968 A 22.887 22.887 0 0 1 1123.7 24.35 A 21.048 21.048 0 0 1 1133.959 20.878 A 26.205 26.205 0 0 1 1136 20.8 Q 1143.5 20.8 1148.45 24.05 Q 1153.4 27.3 1155.9 32.8 A 28.185 28.185 0 0 1 1158.326 42.664 A 33.434 33.434 0 0 1 1158.4 44.9 A 75.204 75.204 0 0 1 1158.109 51.597 A 69.426 69.426 0 0 1 1158.1 51.7 Z M 290 56.1 L 290 31.7 L 281 31.7 L 281 23.9 L 290.2 23.9 L 292.1 7.5 L 299 7.5 L 299 23.9 L 313.4 23.9 L 313.4 31.7 L 299 31.7 L 299 56.8 A 21.559 21.559 0 0 0 299.168 59.596 Q 299.641 63.202 301.45 64.9 Q 303.9 67.2 307.3 67.2 Q 309.8 67.2 312.05 66.4 Q 314.3 65.6 316.2 64.5 L 318.7 71.7 A 18.546 18.546 0 0 1 317.082 72.556 Q 316.28 72.935 315.334 73.308 A 43.365 43.365 0 0 1 313.3 74.05 Q 309.9 75.2 306.2 75.2 Q 298.7 75.2 294.35 70.25 A 16.116 16.116 0 0 1 291.122 64.348 Q 290.359 61.917 290.115 58.98 A 34.777 34.777 0 0 1 290 56.1 Z M 1080.3 56.1 L 1080.3 31.7 L 1071.3 31.7 L 1071.3 23.9 L 1080.5 23.9 L 1082.4 7.5 L 1089.3 7.5 L 1089.3 23.9 L 1103.7 23.9 L 1103.7 31.7 L 1089.3 31.7 L 1089.3 56.8 A 21.559 21.559 0 0 0 1089.468 59.596 Q 1089.941 63.202 1091.75 64.9 Q 1094.2 67.2 1097.6 67.2 Q 1100.1 67.2 1102.35 66.4 Q 1104.6 65.6 1106.5 64.5 L 1109 71.7 A 18.546 18.546 0 0 1 1107.382 72.556 Q 1106.58 72.935 1105.634 73.308 A 43.365 43.365 0 0 1 1103.6 74.05 Q 1100.2 75.2 1096.5 75.2 Q 1089 75.2 1084.65 70.25 A 16.116 16.116 0 0 1 1081.422 64.348 Q 1080.659 61.917 1080.415 58.98 A 34.777 34.777 0 0 1 1080.3 56.1 Z M 118 26.2 L 118 22 L 126.2 22 L 126.2 61.4 A 12.15 12.15 0 0 0 126.302 63.036 Q 126.634 65.47 128.05 66.35 Q 129.9 67.5 132.1 67.5 L 130.2 74.5 A 17.722 17.722 0 0 1 125.935 74.028 Q 120.298 72.628 118.703 67.08 A 13.59 13.59 0 0 1 118.6 66.7 A 21.307 21.307 0 0 1 115.49 70.126 A 28.498 28.498 0 0 1 112.35 72.55 Q 108.4 75.2 102.3 75.2 Q 95.8 75.2 90.5 71.9 A 22.947 22.947 0 0 1 83.087 64.373 A 27.923 27.923 0 0 1 82.05 62.55 A 27.228 27.228 0 0 1 79.42 54.608 A 36.644 36.644 0 0 1 78.9 48.3 A 33.142 33.142 0 0 1 79.897 40.031 A 27.968 27.968 0 0 1 82.05 34.3 Q 85.2 28.1 90.75 24.45 A 22.297 22.297 0 0 1 101.945 20.844 A 27.388 27.388 0 0 1 103.5 20.8 A 22.584 22.584 0 0 1 108.294 21.29 A 18.703 18.703 0 0 1 111.65 22.35 A 26.002 26.002 0 0 1 115.937 24.644 A 22.103 22.103 0 0 1 118 26.2 Z M 617.1 57.7 L 617.1 0 L 626.1 0 L 626.1 56.8 A 20.644 20.644 0 0 0 626.288 59.688 Q 626.75 62.952 628.35 64.8 A 7.363 7.363 0 0 0 632.934 67.276 A 10.724 10.724 0 0 0 634.6 67.4 Q 636.5 67.4 638.35 66.95 A 22.192 22.192 0 0 0 639.813 66.544 Q 640.748 66.247 641.5 65.9 L 643.7 73.2 Q 642.301 73.822 640.388 74.323 A 34.978 34.978 0 0 1 639.25 74.6 A 23.816 23.816 0 0 1 636.095 75.085 A 30.514 30.514 0 0 1 633.4 75.2 A 20.862 20.862 0 0 1 628.51 74.646 A 17.544 17.544 0 0 1 625.1 73.45 A 12.683 12.683 0 0 1 619.775 68.685 A 15.856 15.856 0 0 1 619.25 67.8 Q 617.516 64.654 617.18 60.012 A 32.105 32.105 0 0 1 617.1 57.7 Z M 153.1 74 L 144.1 74 L 144.1 22 L 152.8 22 L 152.8 33.3 Q 154.1 30 156.3 27.15 Q 158.5 24.3 161.8 22.55 A 14.817 14.817 0 0 1 166.48 21.026 A 19.459 19.459 0 0 1 169.5 20.8 Q 171 20.8 172.5 20.95 A 18.972 18.972 0 0 1 173.555 21.084 Q 174.055 21.162 174.482 21.262 A 8.817 8.817 0 0 1 175 21.4 L 172.3 30.7 A 9.763 9.763 0 0 0 170.155 30.088 Q 169.059 29.9 167.8 29.9 A 12.958 12.958 0 0 0 161.17 31.746 A 15.609 15.609 0 0 0 160.75 32 Q 157.422 34.086 155.278 38.442 A 22.927 22.927 0 0 0 155.25 38.5 Q 153.487 42.107 153.17 47.328 A 39.09 39.09 0 0 0 153.1 49.7 L 153.1 74 Z M 1179.4 74 L 1170.4 74 L 1170.4 22 L 1179.1 22 L 1179.1 33.3 Q 1180.4 30 1182.6 27.15 Q 1184.8 24.3 1188.1 22.55 A 14.817 14.817 0 0 1 1192.78 21.026 A 19.459 19.459 0 0 1 1195.8 20.8 Q 1197.3 20.8 1198.8 20.95 A 18.972 18.972 0 0 1 1199.855 21.084 Q 1200.355 21.162 1200.782 21.262 A 8.817 8.817 0 0 1 1201.3 21.4 L 1198.6 30.7 A 9.763 9.763 0 0 0 1196.455 30.088 Q 1195.359 29.9 1194.1 29.9 A 12.958 12.958 0 0 0 1187.47 31.746 A 15.609 15.609 0 0 0 1187.05 32 Q 1183.722 34.086 1181.578 38.442 A 22.927 22.927 0 0 0 1181.55 38.5 Q 1179.787 42.107 1179.47 47.328 A 39.09 39.09 0 0 0 1179.4 49.7 L 1179.4 74 Z M 485.6 71.75 A 24.559 24.559 0 0 0 490.198 73.84 Q 494.253 75.2 498.9 75.2 Q 506.3 75.2 512.15 71.8 Q 518 68.4 521.4 62.25 A 26.255 26.255 0 0 0 524.053 55.109 A 34.184 34.184 0 0 0 524.8 47.8 A 34.542 34.542 0 0 0 524.315 41.891 A 25.795 25.795 0 0 0 521.35 33.45 Q 517.9 27.4 512.05 24.1 A 24.848 24.848 0 0 0 507.409 22.073 A 27.738 27.738 0 0 0 498.9 20.8 A 31.325 31.325 0 0 0 497.32 20.839 A 26.169 26.169 0 0 0 485.7 24.1 Q 479.8 27.4 476.4 33.5 A 26.023 26.023 0 0 0 473.651 41.09 A 35.006 35.006 0 0 0 473 48 A 34.82 34.82 0 0 0 473.265 52.354 A 27.451 27.451 0 0 0 476.35 62.15 Q 479.7 68.3 485.6 71.75 Z M 498.9 67.2 Q 506.8 67.2 511.2 61.85 A 18.802 18.802 0 0 0 515.019 53.76 A 27.105 27.105 0 0 0 515.6 48 Q 515.6 42.8 513.4 38.45 A 19.198 19.198 0 0 0 509.228 32.881 A 18.17 18.17 0 0 0 507.45 31.45 Q 503.7 28.8 498.9 28.8 A 19.249 19.249 0 0 0 493.674 29.472 A 14.037 14.037 0 0 0 486.6 34 A 17.878 17.878 0 0 0 482.926 41.374 Q 482.2 44.306 482.2 47.8 Q 482.2 53 484.4 57.45 A 19.437 19.437 0 0 0 487.93 62.49 A 17.627 17.627 0 0 0 490.35 64.55 Q 494.1 67.2 498.9 67.2 Z M 117.2 60.7 L 117.2 32.8 Q 114.5 30.9 111.25 29.75 Q 108 28.6 104.4 28.6 A 15.924 15.924 0 0 0 99.429 29.354 A 14.024 14.024 0 0 0 95.95 31.05 A 16.301 16.301 0 0 0 90.931 36.474 A 19.962 19.962 0 0 0 90.2 37.85 A 20.663 20.663 0 0 0 88.447 43.527 A 27.678 27.678 0 0 0 88.1 48 Q 88.1 53.6 90.2 57.95 A 17.602 17.602 0 0 0 93.306 62.496 A 15.697 15.697 0 0 0 96 64.75 Q 99.7 67.2 104.3 67.2 Q 108.1 67.2 111.5 65.35 Q 114.9 63.5 117.2 60.7 Z M 739.5 60.9 L 739.5 35.1 A 15.847 15.847 0 0 0 737.389 32.927 Q 736.268 31.964 734.869 31.066 A 28.139 28.139 0 0 0 734.2 30.65 Q 730.8 28.6 726.7 28.6 A 14.946 14.946 0 0 0 721.744 29.4 A 13.385 13.385 0 0 0 718.3 31.2 A 16.69 16.69 0 0 0 713.13 37.35 A 19.924 19.924 0 0 0 712.75 38.15 A 22.19 22.19 0 0 0 711.01 44.514 A 28.113 28.113 0 0 0 710.8 48 A 24.757 24.757 0 0 0 711.393 53.519 A 20.327 20.327 0 0 0 712.9 57.85 A 18.205 18.205 0 0 0 715.94 62.363 A 16.122 16.122 0 0 0 718.65 64.7 Q 722.3 67.2 726.8 67.2 Q 730.5 67.2 733.85 65.45 Q 737.2 63.7 739.5 60.9 Z M 799.4 60 L 799.4 32.8 Q 797.234 31.225 794.197 29.941 A 36.018 36.018 0 0 0 794.1 29.9 A 16.249 16.249 0 0 0 790.296 28.849 A 22.135 22.135 0 0 0 786.9 28.6 Q 782.8 28.6 779.2 30.8 Q 775.6 33 773.35 37.15 Q 771.1 41.3 771.1 47.3 A 24.32 24.32 0 0 0 771.578 52.236 A 18.311 18.311 0 0 0 773.35 57.2 A 18.576 18.576 0 0 0 776.261 61.275 A 15.802 15.802 0 0 0 779.2 63.7 Q 782.8 66 787 66 A 15.276 15.276 0 0 0 791.578 65.332 A 13.606 13.606 0 0 0 794.2 64.2 A 20.855 20.855 0 0 0 797.181 62.184 A 16.309 16.309 0 0 0 799.4 60 Z M 239.2 44.4 L 267.7 44.4 A 24.355 24.355 0 0 0 267.296 39.815 Q 266.8 37.231 265.696 35.207 A 12.422 12.422 0 0 0 263.9 32.7 A 12.488 12.488 0 0 0 256.939 28.924 A 18.395 18.395 0 0 0 253.4 28.6 A 13.58 13.58 0 0 0 248.288 29.535 A 12.524 12.524 0 0 0 243.8 32.65 Q 240 36.7 239.2 44.4 Z M 656.3 44.4 L 684.8 44.4 A 24.355 24.355 0 0 0 684.396 39.815 Q 683.9 37.231 682.796 35.207 A 12.422 12.422 0 0 0 681 32.7 A 12.488 12.488 0 0 0 674.039 28.924 A 18.395 18.395 0 0 0 670.5 28.6 A 13.58 13.58 0 0 0 665.388 29.535 A 12.524 12.524 0 0 0 660.9 32.65 Q 657.1 36.7 656.3 44.4 Z M 829.5 44.4 L 858 44.4 A 24.355 24.355 0 0 0 857.596 39.815 Q 857.1 37.231 855.996 35.207 A 12.422 12.422 0 0 0 854.2 32.7 A 12.488 12.488 0 0 0 847.239 28.924 A 18.395 18.395 0 0 0 843.7 28.6 A 13.58 13.58 0 0 0 838.588 29.535 A 12.524 12.524 0 0 0 834.1 32.65 Q 830.3 36.7 829.5 44.4 Z M 970.3 44.4 L 998.8 44.4 A 24.355 24.355 0 0 0 998.396 39.815 Q 997.9 37.231 996.796 35.207 A 12.422 12.422 0 0 0 995 32.7 A 12.488 12.488 0 0 0 988.039 28.924 A 18.395 18.395 0 0 0 984.5 28.6 A 13.58 13.58 0 0 0 979.388 29.535 A 12.524 12.524 0 0 0 974.9 32.65 Q 971.1 36.7 970.3 44.4 Z M 1121.6 44.4 L 1150.1 44.4 A 24.355 24.355 0 0 0 1149.696 39.815 Q 1149.2 37.231 1148.096 35.207 A 12.422 12.422 0 0 0 1146.3 32.7 A 12.488 12.488 0 0 0 1139.339 28.924 A 18.395 18.395 0 0 0 1135.8 28.6 A 13.58 13.58 0 0 0 1130.688 29.535 A 12.524 12.524 0 0 0 1126.2 32.65 Q 1122.4 36.7 1121.6 44.4 Z" vector-effect="non-scaling-stroke"/></g></svg>